<svg width="41" height="41" viewBox="0 0 41 41" fill="none" xmlns="http://www.w3.org/2000/svg">
<rect x="0.5" y="0.5" width="40" height="40" rx="20" fill="#00DE5A"/>
<circle cx="20" cy="21" r="14" fill="white"/>
<path d="M35.5 20.5C35.5 23.5656 34.591 26.5624 32.8878 29.1113C31.1846 31.6603 28.7638 33.647 25.9316 34.8201C23.0993 35.9933 19.9828 36.3002 16.9761 35.7022C13.9694 35.1041 11.2076 33.6278 9.03986 31.4601C6.87214 29.2924 5.39591 26.5306 4.79784 23.5239C4.19977 20.5172 4.50671 17.4007 5.67987 14.5684C6.85303 11.7362 8.83971 9.31538 11.3887 7.61222C13.9376 5.90906 16.9344 5 20 5C24.1109 5 28.0533 6.63303 30.9601 9.53985C33.867 12.4467 35.5 16.3892 35.5 20.5ZM22.5924 13.215V21.0076L17.1674 13.215H12.715V27.8044H17.4038V19.9885L22.8287 27.785H27.2966V13.215H22.5924Z" fill="#00DE5A"/>
</svg>
