<svg width="18" height="18" viewBox="0 0 18 18" fill="none" xmlns="http://www.w3.org/2000/svg">
<g clip-path="url(#clip0_1561_4005)">
<path d="M10.2959 2.58306L11.6159 5.24481C11.7959 5.61531 12.2759 5.97081 12.6809 6.03831L15.0727 6.43956C16.6027 6.69681 16.9627 7.81581 15.8602 8.91981L14.0002 10.7948C13.6852 11.1121 13.5127 11.7248 13.6102 12.1636L14.1427 14.4848C14.5627 16.3223 13.5952 17.0326 11.9827 16.0726L9.74015 14.7338C9.33515 14.4923 8.66765 14.4923 8.25515 14.7338L6.01415 16.0726C4.40915 17.0326 3.43415 16.3141 3.85415 14.4848L4.38665 12.1636C4.48415 11.7248 4.31165 11.1121 3.99665 10.7948L2.13665 8.91981C1.0424 7.81506 1.3949 6.69681 2.92415 6.43956L5.31665 6.03831C5.71415 5.97081 6.19415 5.61531 6.37415 5.24481L7.69415 2.58306C8.41415 1.13931 9.58415 1.13931 10.2967 2.58306" stroke="#A0A0A1" stroke-width="1.5" stroke-linecap="round" stroke-linejoin="round"/>
</g>
<defs>
<clipPath id="clip0_1561_4005">
<rect width="18" height="18" fill="white"/>
</clipPath>
</defs>
</svg>
