<svg width="18" height="18" viewBox="0 0 18 18" fill="none" xmlns="http://www.w3.org/2000/svg">
<g clip-path="url(#clip0_759_2867)">
<path d="M17.0072 4.0623C16.064 3.94427 14.8031 2.70493 14.684 1.76066C14.6442 1.4164 14.3265 1.14099 13.9791 1.14099C13.6316 1.14099 13.3238 1.4164 13.2741 1.76066C13.155 2.69509 11.904 3.94427 10.9509 4.0623C10.6034 4.10165 10.3254 4.4164 10.3254 4.76066C10.3254 5.10493 10.6034 5.40984 10.9509 5.45902C11.8941 5.57706 13.155 6.8164 13.2741 7.76066C13.3139 8.10493 13.6316 8.38034 13.9791 8.38034C14.3265 8.38034 14.6343 8.10493 14.684 7.76066C14.8031 6.82624 16.0541 5.57706 17.0072 5.45902C17.3547 5.41968 17.6327 5.10493 17.6327 4.76066C17.6327 4.4164 17.3547 4.11148 17.0072 4.0623Z" fill="black"/>
<path d="M13.1947 11.6852C13.701 11.0361 14.0684 10.3279 14.3365 9.53115C14.1975 9.56066 14.0684 9.58033 13.9095 9.57049C13.5025 9.56066 13.1153 9.40328 12.7876 9.19672C11.9934 11.4098 9.8588 13.0033 7.35687 13.0033C4.16988 13.0033 1.5786 10.4361 1.5786 7.27869C1.5786 4.12131 4.15996 1.56393 7.34694 1.56393C8.57805 1.56393 9.70987 1.94754 10.6431 2.59672C10.6729 2.59672 10.6928 2.58689 10.7226 2.57705C11.0403 2.52787 11.6955 1.89836 11.8345 1.52459C10.5935 0.570492 9.03475 0 7.34694 0C3.29619 0 0 3.26557 0 7.27869C0 11.2918 3.29619 14.5574 7.34694 14.5574C8.94539 14.5574 10.4148 14.0459 11.6161 13.1902L16.1434 17.6852C16.3519 17.8918 16.6299 18 16.9277 18C17.5532 18 17.9901 17.5377 17.9901 16.9279C17.9901 16.6328 17.8809 16.3672 17.6823 16.1803L13.1748 11.6951L13.1947 11.6852Z" fill="black"/>
</g>
<defs>
<clipPath id="clip0_759_2867">
<rect width="18" height="18" fill="white"/>
</clipPath>
</defs>
</svg>
