<svg width="10" height="10" viewBox="0 0 10 10" fill="none" xmlns="http://www.w3.org/2000/svg">
<path d="M5.7256 1.40642L6.46482 2.897C6.56563 3.10448 6.83443 3.30356 7.06124 3.34136L8.40065 3.56606C9.25747 3.71012 9.45908 4.33676 8.84166 4.955L7.80004 6.00499C7.62363 6.18265 7.52703 6.52579 7.58163 6.77149L7.87984 8.07139C8.11505 9.10039 7.57323 9.49813 6.67021 8.96053L5.41438 8.21083C5.18757 8.07559 4.81376 8.07559 4.58276 8.21083L3.32776 8.96053C2.42894 9.49813 1.88293 9.09577 2.11813 8.07139L2.41634 6.77149C2.47094 6.52579 2.37434 6.18265 2.19794 6.00499L1.15631 4.955C0.543514 4.33634 0.740918 3.71012 1.59732 3.56606L2.93715 3.34136C3.15976 3.30356 3.42857 3.10448 3.52937 2.897L4.26859 1.40642C4.6718 0.597924 5.32701 0.597924 5.72602 1.40642" fill="#2F2F33"/>
<path d="M5.7256 1.40642L6.46482 2.897C6.56563 3.10448 6.83443 3.30356 7.06124 3.34136L8.40065 3.56606C9.25747 3.71012 9.45908 4.33676 8.84166 4.955L7.80004 6.00499C7.62363 6.18265 7.52703 6.52579 7.58163 6.77149L7.87984 8.07139C8.11505 9.10039 7.57323 9.49813 6.67021 8.96053L5.41438 8.21083C5.18757 8.07559 4.81376 8.07559 4.58276 8.21083L3.32776 8.96053C2.42894 9.49813 1.88293 9.09577 2.11813 8.07139L2.41634 6.77149C2.47094 6.52579 2.37434 6.18265 2.19794 6.00499L1.15631 4.955C0.543514 4.33634 0.740918 3.71012 1.59732 3.56606L2.93715 3.34136C3.15976 3.30356 3.42857 3.10448 3.52937 2.897L4.26859 1.40642C4.6718 0.597924 5.32701 0.597924 5.72602 1.40642" stroke="#2F2F33" stroke-width="1.5" stroke-linecap="round" stroke-linejoin="round"/>
</svg>
